<?xml version="1.0" encoding="UTF-8"?>
<svg version="1.1" xmlns="http://www.w3.org/2000/svg" width="225" height="225">
<path d="M0 0 C6.07921779 5.79354026 9.76171087 12.85628455 10.08984375 21.31640625 C9.57364836 28.92697927 6.41118003 36.58881997 1 42 C-7.40630348 48.00206658 -14.81680059 48.89308301 -25 48 C-31.85129954 46.01062526 -37.3194836 42.14186173 -41 36 C-44.6463932 28.2742044 -46.25756049 21.76370915 -43.75 13.4375 C-40.68846315 5.1135058 -35.63764038 0.05108253 -27.9140625 -4.12890625 C-18.76008064 -8.29490207 -7.89426893 -5.54983 0 0 Z " fill="#3F9D9A" transform="translate(204,91)"/>
<path d="M0 0 C6.08199705 4.43245173 9.65714828 10.41192331 11.75 17.5625 C12.53527156 25.21889774 11.31256876 31.06296477 8 38 C5.5625 40.9375 5.5625 40.9375 3 43 C2.195625 43.70125 1.39125 44.4025 0.5625 45.125 C-6.74264 50.47022439 -13.14816322 51.01498459 -22 50 C-30.8864645 47.40260307 -36.1885195 41.53464596 -40.9375 33.875 C-43.59574227 26.56901339 -43.17812649 17.58444164 -40 10.5625 C-36.13831037 3.98572887 -31.28528994 -0.52026094 -24 -2.9375 C-15.11207748 -5.10198646 -8.16942063 -4.13348298 0 0 Z " fill="#3C9C99" transform="translate(128,16)"/>
<path d="M0 0 C7.03921956 4.05495496 11.95683624 9.56879967 14.75 17.25 C16.29059617 24.56783182 15.65167125 31.03590335 12.5 37.8125 C7.3444987 45.5402084 1.6131646 49.90036278 -7.5 51.8125 C-14.47622693 52.90253546 -21.79246804 51.14183945 -27.73828125 47.40625 C-34.03653357 42.37713704 -37.85202636 36.43860687 -38.9765625 28.41015625 C-39.34901237 19.38314765 -37.76115391 12.5193813 -31.6328125 5.75 C-22.73992089 -2.55464586 -11.3302615 -5.36874872 0 0 Z " fill="#3E9D9A" transform="translate(124.5,161.1875)"/>
<path d="M0 0 C6.48699375 5.93608133 9.26069963 12.16282678 9.65234375 20.93359375 C9.34319832 29.47996897 6.45936252 35.6142854 0.21484375 41.43359375 C-7.78485118 47.71483569 -14.80210564 48.66673658 -24.91015625 47.49609375 C-32.2422877 45.35010406 -37.85312493 40.95353527 -41.91015625 34.49609375 C-45.53548433 26.35205316 -46.18356556 18.22775142 -43.078125 9.80078125 C-39.39810599 2.53920528 -33.59186232 -2.84112999 -25.91015625 -5.50390625 C-16.67975441 -8.11249807 -7.41229087 -5.83585273 0 0 Z " fill="#3C9C99" transform="translate(56.91015625,91.50390625)"/>
<path d="M0 0 C7.09851698 4.17421098 11.88083286 10.4184074 14.125 18.375 C15.17887895 27.01680738 13.70819524 34.01365349 8.75 41.1875 C4.93076883 45.97108704 0.21706924 49.01097692 -5.5625 50.9375 C-15.25776896 51.63905564 -22.67912871 51.62961016 -30.453125 45.4296875 C-35.93167844 40.4805741 -38.99984943 35.16799533 -39.9765625 27.82421875 C-40.31983521 20.13671668 -39.16923928 14.18266387 -34.5625 7.9375 C-25.31609817 -2.0111602 -12.93170293 -5.97452537 0 0 Z " fill="#DC394E" transform="translate(125.5625,88.0625)"/>
<path d="M0 0 C0.99 0.66 1.98 1.32 3 2 C2.67 2.33 2.34 2.66 2 3 C0.63385116 12.08985871 0.63385116 12.08985871 2 21 C4.43750025 23.68767578 4.43750025 23.68767578 7 26 C7.33 26.99 7.66 27.98 8 29 C9.49985609 30.66710346 9.49985609 30.66710346 11 32 C7 32 7 32 5.1484375 30.3125 C-0.6561587 22.74351112 -2.60706367 16.56125273 -2 7 C-1.46969023 4.59074787 -0.78200898 2.34602695 0 0 Z " fill="#71B4B1" transform="translate(14,101)"/>
<path d="M0 0 C5.82737454 4.23809057 8.72487297 8.64331597 10.75 15.5625 C11.6961326 24.78729282 11.6961326 24.78729282 9 29 C8.20734361 23.67787852 7.57021934 18.3503559 7 13 C6.01 13 5.02 13 4 13 C3.06576355 9.98968256 2.95550089 9.13349732 4 6 C3.34 6 2.68 6 2 6 C2 5.01 2 4.02 2 3 C1.34 3 0.68 3 0 3 C0 2.01 0 1.02 0 0 Z " fill="#54A39E" transform="translate(129,18)"/>
<path d="M0 0 C4.98012761 1.50912958 8.24259942 4.55661849 12 8 C11.67 8.66 11.34 9.32 11 10 C10.34 10 9.68 10 9 10 C8.34 8.35 7.68 6.7 7 5 C5.02 5.99 5.02 5.99 3 7 C1.5 5.75 1.5 5.75 0 4 C0 2.68 0 1.36 0 0 Z " fill="#56A8A5" transform="translate(48,87)"/>
<path d="M0 0 C1.10794922 0.34417969 1.10794922 0.34417969 2.23828125 0.6953125 C1.24828125 2.1803125 1.24828125 2.1803125 0.23828125 3.6953125 C0.23828125 3.0353125 0.23828125 2.3753125 0.23828125 1.6953125 C-1.08171875 2.0253125 -2.40171875 2.3553125 -3.76171875 2.6953125 C-3.76171875 3.6853125 -3.76171875 4.6753125 -3.76171875 5.6953125 C-5.41171875 6.3553125 -7.06171875 7.0153125 -8.76171875 7.6953125 C-8.76171875 8.6853125 -8.76171875 9.6753125 -8.76171875 10.6953125 C-10.08171875 11.0253125 -11.40171875 11.3553125 -12.76171875 11.6953125 C-11.57727844 6.80949622 -8.48343105 4.23879118 -4.9296875 0.953125 C-2.76171875 -0.3046875 -2.76171875 -0.3046875 0 0 Z " fill="#65AAA7" transform="translate(27.76171875,89.3046875)"/>
<path d="M0 0 C0.33 0.66 0.66 1.32 1 2 C-0.44632813 2.19916016 -0.44632813 2.19916016 -1.921875 2.40234375 C-3.81679687 2.66724609 -3.81679687 2.66724609 -5.75 2.9375 C-7.00296875 3.11152344 -8.2559375 3.28554687 -9.546875 3.46484375 C-12.83494902 3.90967522 -12.83494902 3.90967522 -15.328125 4.62890625 C-17 5 -17 5 -19 4 C-12.36543779 0.45128068 -7.3830972 -0.12513724 0 0 Z " fill="#72B5B0" transform="translate(117,12)"/>
<path d="M0 0 C3.20059586 4.80089379 3.31124586 9.29382594 3 15 C2 17.4375 2 17.4375 1 19 C-0.15316726 12.65758005 -0.09507063 6.43311296 0 0 Z " fill="#78B7B3" transform="translate(137,28)"/>
<path d="M0 0 C0.33 0 0.66 0 1 0 C1.22162857 2.77035709 1.42779249 5.54038995 1.625 8.3125 C1.68945312 9.09818359 1.75390625 9.88386719 1.8203125 10.69335938 C1.871875 11.45068359 1.9234375 12.20800781 1.9765625 12.98828125 C2.02893066 13.68477783 2.08129883 14.38127441 2.13525391 15.09887695 C2 17 2 17 0 20 C-1.16698437 16.49904689 -1.13268287 13.6877768 -1.125 10 C-1.12886719 8.14375 -1.12886719 8.14375 -1.1328125 6.25 C-1 3 -1 3 0 0 Z " fill="#77B7B5" transform="translate(87,176)"/>
<path d="M0 0 C0.66 0.33 1.32 0.66 2 1 C2 1.99 2 2.98 2 4 C1.195625 4.2475 0.39125 4.495 -0.4375 4.75 C-3.171081 5.72238859 -3.171081 5.72238859 -3.8125 8.125 C-3.874375 8.74375 -3.93625 9.3625 -4 10 C-5.32 10.33 -6.64 10.66 -8 11 C-6.52670958 5.99081256 -3.72484762 3.48192278 0 0 Z " fill="#D25563" transform="translate(97,90)"/>
<path d="M0 0 C0.79921875 0.00902344 1.5984375 0.01804688 2.421875 0.02734375 C3.02515625 0.03894531 3.6284375 0.05054688 4.25 0.0625 C4.25 0.3925 4.25 0.7225 4.25 1.0625 C2.6 1.0625 0.95 1.0625 -0.75 1.0625 C-0.75 2.0525 -0.75 3.0425 -0.75 4.0625 C-2.4 4.3925 -4.05 4.7225 -5.75 5.0625 C-5.75 4.4025 -5.75 3.7425 -5.75 3.0625 C-6.74 3.0625 -7.73 3.0625 -8.75 3.0625 C-8.75 2.4025 -8.75 1.7425 -8.75 1.0625 C-5.75519083 0.1901588 -3.11424089 -0.04579766 0 0 Z " fill="#399593" transform="translate(112.75,159.9375)"/>
<path d="M0 0 C0.66 0 1.32 0 2 0 C2 4.62 2 9.24 2 14 C1.01 14 0.02 14 -1 14 C-1.02685938 11.85423363 -1.04633088 9.70837355 -1.0625 7.5625 C-1.07410156 6.36753906 -1.08570312 5.17257813 -1.09765625 3.94140625 C-1 1 -1 1 0 0 Z " fill="#D66170" transform="translate(87,105)"/>
<path d="M0 0 C0.99 0 1.98 0 3 0 C3.268125 0.763125 3.53625 1.52625 3.8125 2.3125 C4.94424112 4.87380884 5.91223401 6.19692938 8 8 C6.68 8 5.36 8 4 8 C0 3.88888889 0 3.88888889 0 0 Z " fill="#5CA7A4" transform="translate(17,125)"/>
<path d="M0 0 C4.43090471 1.20842856 6.98112756 2.51668565 10 6 C8.1875 6.6875 8.1875 6.6875 6 7 C4.25 5.6875 4.25 5.6875 3 4 C3 3.34 3 2.68 3 2 C2.01 2 1.02 2 0 2 C0 1.34 0 0.68 0 0 Z M1 5 C1.99 5.33 2.98 5.66 4 6 C3.67 6.66 3.34 7.32 3 8 C2.34 7.67 1.68 7.34 1 7 C1 6.34 1 5.68 1 5 Z " fill="#66AEAB" transform="translate(195,87)"/>
<path d="M0 0 C2.76276177 0.52268466 5.3260876 1.10869587 8 2 C8 2.66 8 3.32 8 4 C9.32 4.66 10.64 5.32 12 6 C11.01 6.495 11.01 6.495 10 7 C5.86370087 5.29152862 2.98232523 3.32643967 0 0 Z " fill="#72B2B0" transform="translate(94,205)"/>
<path d="M0 0 C0.66 0.99 1.32 1.98 2 3 C1.67 3.33 1.34 3.66 1 4 C1 4.99 1 5.98 1 7 C0.34 7 -0.32 7 -1 7 C-1 10.96 -1 14.92 -1 19 C-1.33 19 -1.66 19 -2 19 C-2.05428973 16.77110504 -2.09292338 14.54182529 -2.125 12.3125 C-2.15980469 10.45044922 -2.15980469 10.45044922 -2.1953125 8.55078125 C-2.01032021 5.18762143 -1.45767895 3.0014413 0 0 Z " fill="#83C2C0" transform="translate(88,27)"/>
<path d="M0 0 C0.66 0.33 1.32 0.66 2 1 C1.58578031 5.83256305 -0.46413986 7.82679218 -4 11 C-3.71758359 9.53984709 -3.42373386 8.08190207 -3.125 6.625 C-2.96257812 5.81289062 -2.80015625 5.00078125 -2.6328125 4.1640625 C-2 2 -2 2 0 0 Z " fill="#66ACA7" transform="translate(136,193)"/>
<path d="M0 0 C-0.33 0.99 -0.66 1.98 -1 3 C-2.32303717 3.3721042 -3.65737935 3.70630173 -5 4 C-5.33 4.66 -5.66 5.32 -6 6 C-6.66 6 -7.32 6 -8 6 C-7.6875 4.125 -7.6875 4.125 -7 2 C-4 0 -4 0 0 0 Z " fill="#5EA8A3" transform="translate(103,162)"/>
<path d="M0 0 C0.99 0 1.98 0 3 0 C1.68775452 3.93673644 0.08089673 6.22719294 -3 9 C-3.33 7.68 -3.66 6.36 -4 5 C-3.01 5 -2.02 5 -1 5 C-0.67 3.35 -0.34 1.7 0 0 Z " fill="#6EB0AD" transform="translate(208,123)"/>
<path d="M0 0 C-0.66 1.65 -1.32 3.3 -2 5 C-3.98 5 -5.96 5 -8 5 C-3.16129032 0 -3.16129032 0 0 0 Z " fill="#369A95" transform="translate(202,130)"/>
<path d="M0 0 C3.25543229 0.34879632 4.01873107 1.02133261 6.25 3.5625 C6.8275 4.366875 7.405 5.17125 8 6 C7.01 6.33 6.02 6.66 5 7 C4.34 5.35 3.68 3.7 3 2 C2.01 2 1.02 2 0 2 C0 1.34 0 0.68 0 0 Z " fill="#5BA19F" transform="translate(52,90)"/>
<path d="M0 0 C0.33 1.32 0.66 2.64 1 4 C0.01 4 -0.98 4 -2 4 C-2.33 4.66 -2.66 5.32 -3 6 C-3.66 4.68 -4.32 3.36 -5 2 C-3.35 1.34 -1.7 0.68 0 0 Z " fill="#DB3145" transform="translate(126,90)"/>
<path d="M0 0 C0.99 0 1.98 0 3 0 C2.34 1.65 1.68 3.3 1 5 C0.01 5 -0.98 5 -2 5 C-1.125 1.125 -1.125 1.125 0 0 Z " fill="#62ACA7" transform="translate(60,124)"/>
<path d="M0 0 C0.33 0.99 0.66 1.98 1 3 C0.01 3.99 -0.98 4.98 -2 6 C-2.66 5.34 -3.32 4.68 -4 4 C-4.66 3.67 -5.32 3.34 -6 3 C-4.02 2.01 -2.04 1.02 0 0 Z " fill="#55A29E" transform="translate(100,16)"/>
<path d="M0 0 C3.36720387 1.39332574 4.9859524 2.9789286 7 6 C4 6 4 6 1.8125 4.125 C0 2 0 2 0 0 Z " fill="#D15969" transform="translate(90,126)"/>
<path d="M0 0 C2.50037734 2.17424117 3.43628586 3.73045798 4 7 C3.01 7 2.02 7 1 7 C0.67 4.69 0.34 2.38 0 0 Z " fill="#64ABA6" transform="translate(60,96)"/>
<path d="M0 0 C0.66 0.99 1.32 1.98 2 3 C0.35 4.32 -1.3 5.64 -3 7 C-3 3.48283697 -2.17554415 2.62878252 0 0 Z " fill="#76B5B3" transform="translate(93,20)"/>
<path d="" fill="#FFFFFF" transform="translate(0,0)"/>
<path d="" fill="#FFFFFF" transform="translate(0,0)"/>
<path d="" fill="#FFFFFF" transform="translate(0,0)"/>
<path d="" fill="#FFFFFF" transform="translate(0,0)"/>
<path d="" fill="#FFFFFF" transform="translate(0,0)"/>
<path d="" fill="#FFFFFF" transform="translate(0,0)"/>
<path d="" fill="#FFFFFF" transform="translate(0,0)"/>
<path d="" fill="#FFFFFF" transform="translate(0,0)"/>
<path d="" fill="#FFFFFF" transform="translate(0,0)"/>
<path d="" fill="#FFFFFF" transform="translate(0,0)"/>
<path d="" fill="#FFFFFF" transform="translate(0,0)"/>
<path d="" fill="#FFFFFF" transform="translate(0,0)"/>
<path d="" fill="#FFFFFF" transform="translate(0,0)"/>
<path d="" fill="#FFFFFF" transform="translate(0,0)"/>
<path d="" fill="#FEFFFF" transform="translate(0,0)"/>
<path d="" fill="#FFFFFF" transform="translate(0,0)"/>
<path d="" fill="#FFFFFF" transform="translate(0,0)"/>
<path d="" fill="#FFFFFF" transform="translate(0,0)"/>
<path d="" fill="#FFFFFF" transform="translate(0,0)"/>
<path d="" fill="#FFFFFF" transform="translate(0,0)"/>
<path d="" fill="#FFFFFF" transform="translate(0,0)"/>
<path d="" fill="#FFFFFF" transform="translate(0,0)"/>
<path d="" fill="#FFFFFF" transform="translate(0,0)"/>
<path d="" fill="#FFFFFF" transform="translate(0,0)"/>
<path d="" fill="#FFFFFF" transform="translate(0,0)"/>
<path d="" fill="#FFFFFF" transform="translate(0,0)"/>
<path d="" fill="#FFFFFF" transform="translate(0,0)"/>
<path d="" fill="#FFFFFF" transform="translate(0,0)"/>
<path d="" fill="#FFFFFF" transform="translate(0,0)"/>
<path d="" fill="#FFFFFF" transform="translate(0,0)"/>
<path d="" fill="#FFFFFF" transform="translate(0,0)"/>
<path d="" fill="#FFFFFF" transform="translate(0,0)"/>
<path d="" fill="#FFFFFF" transform="translate(0,0)"/>
<path d="" fill="#FFFFFF" transform="translate(0,0)"/>
<path d="" fill="#FFFFFF" transform="translate(0,0)"/>
<path d="" fill="#FFFFFF" transform="translate(0,0)"/>
<path d="" fill="#FFFFFF" transform="translate(0,0)"/>
<path d="" fill="#FFFFFF" transform="translate(0,0)"/>
<path d="" fill="#FFFFFF" transform="translate(0,0)"/>
<path d="" fill="#FFFFFF" transform="translate(0,0)"/>
<path d="" fill="#FFFFFF" transform="translate(0,0)"/>
<path d="" fill="#FFFFFF" transform="translate(0,0)"/>
<path d="" fill="#FFFFFF" transform="translate(0,0)"/>
<path d="" fill="#FFFFFF" transform="translate(0,0)"/>
<path d="" fill="#FFFFFF" transform="translate(0,0)"/>
<path d="" fill="#FFFFFF" transform="translate(0,0)"/>
<path d="" fill="#FFFFFF" transform="translate(0,0)"/>
<path d="" fill="#FFFFFF" transform="translate(0,0)"/>
<path d="" fill="#FFFFFF" transform="translate(0,0)"/>
<path d="" fill="#FFFFFF" transform="translate(0,0)"/>
<path d="" fill="#FFFFFF" transform="translate(0,0)"/>
<path d="" fill="#FFFFFF" transform="translate(0,0)"/>
<path d="" fill="#FFFFFF" transform="translate(0,0)"/>
<path d="" fill="#FFFFFF" transform="translate(0,0)"/>
<path d="" fill="#FFFFFF" transform="translate(0,0)"/>
</svg>
